<?xml version="1.0" standalone="no"?>
<!DOCTYPE svg PUBLIC "-//W3C//DTD SVG 20010904//EN"
 "http://www.w3.org/TR/2001/REC-SVG-20010904/DTD/svg10.dtd">
<svg version="1.0" xmlns="http://www.w3.org/2000/svg"
 width="400.000000pt" height="400.000000pt" viewBox="0 0 400.000000 400.000000"
 preserveAspectRatio="xMidYMid meet">
<metadata>
Created by potrace 1.14, written by Peter Selinger 2001-2017
</metadata>
<g transform="translate(0.000000,400.000000) scale(0.100000,-0.100000)"
fill="#000000" stroke="none">
<path d="M1459 3436 c-2 -2 -33 -7 -68 -10 -214 -22 -444 -113 -611 -242 -254
-195 -412 -490 -466 -869 -7 -52 -7 -576 0 -635 27 -217 88 -409 184 -575 101
-175 284 -335 480 -420 132 -58 278 -95 442 -113 119 -13 772 -5 995 13 22 2
77 6 123 9 154 12 187 17 292 52 186 62 365 170 493 299 32 32 60 69 63 82 8
29 -13 81 -37 94 -10 5 -84 9 -165 10 l-146 0 -54 -38 c-127 -89 -212 -139
-254 -148 -8 -2 -28 -8 -43 -14 -80 -31 -251 -41 -792 -46 -432 -3 -494 2
-666 56 -318 100 -513 348 -569 723 -12 83 -17 511 -6 609 49 457 303 746 721
821 73 13 140 15 350 11 143 -3 285 -7 315 -9 30 -3 91 -7 135 -11 80 -6 129
-10 238 -20 110 -10 172 -16 202 -20 68 -8 132 -17 155 -21 14 -2 41 -7 60
-10 142 -24 307 -144 392 -286 92 -154 130 -337 132 -640 3 -309 -12 -391 -84
-451 -80 -68 -227 -40 -278 53 -29 51 -35 104 -37 315 -2 202 -10 262 -53 355
-35 76 -124 162 -199 190 -83 31 -205 38 -289 15 -95 -26 -203 -101 -241 -169
-8 -15 -13 -12 -38 26 -61 93 -157 145 -281 154 -140 11 -243 -21 -334 -103
l-50 -45 0 46 c0 74 -15 82 -166 81 -115 -1 -128 -2 -143 -21 -15 -19 -16 -74
-16 -582 0 -508 2 -563 17 -578 25 -25 281 -25 306 -1 15 15 17 56 18 390 1
402 3 416 57 476 31 33 95 61 142 61 47 0 112 -28 141 -61 51 -56 56 -96 55
-485 0 -292 2 -365 13 -380 13 -17 29 -19 155 -19 111 0 144 4 156 15 12 13
15 71 15 380 1 323 3 371 19 417 31 91 118 143 215 129 61 -9 105 -42 134 -98
21 -40 25 -64 28 -165 12 -408 39 -503 180 -631 76 -69 150 -108 232 -123 80
-16 244 -5 314 20 196 69 322 243 344 477 10 107 12 431 3 474 -4 19 -10 64
-14 100 -30 323 -160 598 -365 775 -151 129 -359 217 -570 240 -30 3 -71 8
-90 10 -51 7 -125 14 -210 20 -41 3 -95 8 -120 10 -25 3 -94 7 -155 11 -60 3
-132 8 -160 10 -66 6 -541 14 -546 10z"/>
</g>
</svg>
