<?xml version="1.0" standalone="no"?>
<!DOCTYPE svg PUBLIC "-//W3C//DTD SVG 20010904//EN"
 "http://www.w3.org/TR/2001/REC-SVG-20010904/DTD/svg10.dtd">
<svg version="1.0" xmlns="http://www.w3.org/2000/svg"
 width="700.000000pt" height="700.000000pt" viewBox="0 0 700.000000 700.000000"
 preserveAspectRatio="xMidYMid meet">
<metadata>
Created by potrace 1.11, written by Peter Selinger 2001-2013
</metadata>
<g transform="translate(0.000000,700.000000) scale(0.100000,-0.100000)"
fill="#000000" stroke="none">
<path d="M450 3500 l0 -1450 361 0 362 0 -7 813 c-3 446 -7 828 -10 847 -2 19
-6 91 -9 160 l-6 125 35 -115 c19 -63 41 -137 49 -165 7 -27 64 -225 125 -440
61 -214 163 -574 227 -800 64 -225 117 -411 119 -413 1 -2 173 -6 382 -8 l379
-4 21 72 c21 72 177 623 211 748 75 270 124 442 215 760 l105 365 -4 -230 c-3
-126 -7 -564 -10 -972 l-6 -743 375 0 376 0 0 1450 0 1450 -532 -2 -532 -3
-229 -795 c-263 -916 -311 -1082 -327 -1130 -7 -19 -14 -41 -16 -49 -3 -8 -6
-12 -9 -10 -2 2 -117 389 -255 859 -139 470 -270 917 -293 993 l-40 137 -529
0 -528 0 0 -1450z"/>
<path d="M4310 3500 l0 -1452 648 5 c356 3 661 8 677 10 17 2 57 7 89 11 84
10 237 52 319 86 103 45 182 95 260 169 172 162 238 315 243 561 6 320 -102
510 -359 635 l-110 53 63 31 c133 66 203 134 269 260 60 116 80 199 80 340 0
136 -16 215 -59 307 -113 237 -380 375 -790 410 -36 3 -85 7 -110 10 -25 2
-309 7 -632 10 l-588 7 0 -1453z m1158 804 c134 -28 192 -92 192 -210 0 -76
-30 -137 -88 -181 -59 -45 -96 -53 -262 -59 -80 -3 -153 -7 -162 -9 -17 -3
-18 14 -18 236 l0 240 138 -2 c75 -1 166 -8 200 -15z m51 -1080 c74 -20 140
-69 170 -128 20 -39 25 -63 25 -126 0 -143 -54 -221 -182 -260 -53 -17 -93
-20 -233 -20 l-169 0 0 275 0 276 168 -2 c107 -1 186 -6 221 -15z"/>
</g>
</svg>
