<?xml version="1.0" standalone="no"?>
<!DOCTYPE svg PUBLIC "-//W3C//DTD SVG 20010904//EN"
 "http://www.w3.org/TR/2001/REC-SVG-20010904/DTD/svg10.dtd">
<svg version="1.0" xmlns="http://www.w3.org/2000/svg"
 width="650.000000pt" height="650.000000pt" viewBox="0 0 650.000000 650.000000"
 preserveAspectRatio="xMidYMid meet">
<metadata>
Created by potrace 1.11, written by Peter Selinger 2001-2013
</metadata>
<g transform="translate(0.000000,650.000000) scale(0.100000,-0.100000)"
fill="#000000" stroke="none">
<path d="M0 3250 l0 -3250 3250 0 3250 0 0 3250 0 3250 -3250 0 -3250 0 0
-3250z m1700 288 c217 -555 398 -1008 401 -1008 4 0 27 53 53 118 25 64 203
517 395 1007 l348 890 352 3 351 2 0 -104 0 -104 -62 -11 c-35 -6 -96 -16
-135 -22 l-73 -12 0 -983 0 -984 23 -5 c12 -2 65 -12 117 -20 143 -24 130 -11
130 -131 l0 -104 -440 0 -440 0 0 105 c0 100 1 105 23 109 12 3 63 12 112 21
50 9 102 18 118 21 l27 6 0 409 c0 224 7 614 16 865 13 408 14 478 0 463 -2
-2 -162 -398 -356 -879 -194 -481 -375 -930 -403 -997 l-49 -123 -108 0 -107
0 -398 988 c-219 543 -402 991 -407 996 -4 5 -10 7 -13 5 -2 -3 4 -255 15
-560 11 -304 20 -692 20 -861 l0 -308 23 -5 c12 -2 65 -12 117 -20 143 -24
130 -11 130 -131 l0 -104 -440 0 -440 0 0 105 c0 100 1 105 23 109 12 3 63 12
112 21 50 9 102 18 118 21 l27 6 -2 981 -3 982 -137 24 -138 25 0 103 0 103
352 -2 352 -3 396 -1007z m3548 984 c162 -43 277 -107 365 -202 108 -116 152
-251 146 -443 -4 -108 -6 -117 -43 -193 -51 -104 -143 -196 -250 -248 -42 -21
-76 -39 -76 -41 0 -1 35 -15 77 -30 187 -66 327 -221 378 -420 21 -79 21 -258
1 -354 -62 -296 -313 -482 -691 -511 -66 -5 -387 -10 -712 -10 l-593 0 0 105
c0 120 -17 105 140 130 52 8 105 18 118 20 l22 5 0 984 0 983 -140 23 -140 23
0 104 0 104 658 -4 c639 -3 659 -4 740 -25z"/>
<path d="M4460 3901 l0 -401 318 0 c384 0 431 9 535 100 81 72 117 159 119
290 3 203 -90 327 -285 381 -75 21 -108 23 -384 27 l-303 4 0 -401z"/>
<path d="M4460 2786 l0 -456 338 0 c306 0 346 2 417 20 232 59 339 230 313
498 -17 185 -106 313 -253 368 -45 17 -89 19 -432 22 l-383 3 0 -455z"/>
</g>
</svg>
