<svg xmlns="http://www.w3.org/2000/svg" viewBox="0 0 11.28 9.6">
  <style>
    path {
      fill: #050505;
    }
    @media (prefers-color-scheme: dark) {
      path {
        fill: #fafafa;
      }
    }
  </style>
  <path d="m11.25,3.89c-.04-.55-.15-1.06-.32-1.52-.18-.46-.44-.87-.8-1.21-.36-.34-.81-.6-1.37-.79s-3.59-.37-4.39-.37c-.68,0-1.28.1-1.79.3-.52.2-.95.47-1.31.82-.36.35-.64.75-.85,1.21-.2.46-.33.94-.39,1.46,0,.1-.01.25-.02.43s0,.38,0,.59,0,.4,0,.59,0,.33.02.44c.08.74.29,1.4.63,1.97s.83,1.01,1.46,1.32c.64.31,1.43.47,2.37.47.66,0,3.17-.07,3.65-.2.48-.14.89-.31,1.22-.53.34-.22.62-.46.84-.71.02-.02.03-.05.05-.08.02-.03.02-.06.02-.09,0-.09-.03-.16-.08-.22-.06-.06-.12-.08-.2-.08h-.76c-.08,0-.14.02-.19.05-.05.03-.1.07-.17.12-.14.1-.29.2-.47.31s-.42.2-.73.26c-.31.07-2.66.1-3.18.1-1.04,0-1.83-.24-2.37-.72-.54-.48-.86-1.15-.95-2.02-.02-.15-.03-.35-.03-.61s0-.5,0-.75.01-.44.03-.58c.06-.56.22-1.05.47-1.46.25-.41.6-.73,1.05-.96.45-.23,1.01-.34,1.69-.34.81,0,3.8.2,4.29.4.48.2.84.51,1.07.92.23.41.36.93.4,1.54.02.26.03.5.02.74,0,.24-.01.44-.01.6,0,.11-.02.23-.05.37-.04.13-.1.25-.2.34-.1.1-.24.14-.42.14-.2,0-.36-.07-.48-.22-.11-.13-.16-.32-.17-.56v-.82s0-.07,0-.1c-.01-.34-.07-.63-.18-.85-.13-.25-.3-.43-.51-.55-.13-.08-.28-.12-.44-.15-.09-.02-.18-.03-.28-.03-.27,0-.51.06-.73.19-.22.13-.39.29-.51.49-.22-.46-.63-.69-1.22-.67-.25,0-.47.06-.65.16-.18.1-.32.23-.43.37v-.26c0-.06-.02-.1-.06-.14-.04-.04-.08-.05-.13-.05h-.71c-.05,0-.09.02-.13.05s-.05.08-.05.14v3.61c0,.06.02.1.05.14s.08.05.13.05h.77c.05,0,.09-.02.13-.05.04-.04.05-.08.05-.14v-2.13c0-.2.03-.37.1-.48.06-.12.15-.2.25-.26.1-.05.21-.08.31-.08.12,0,.23.03.33.08.1.05.18.14.24.26.06.12.09.29.09.49v2.13c0,.06.02.1.05.14.04.04.08.05.14.05h.75c.06,0,.1-.02.14-.05.04-.04.05-.08.05-.14v-2.13c0-.21.03-.37.1-.49.06-.12.15-.21.25-.26.1-.05.2-.08.31-.08.12,0,.23.03.33.08.1.05.18.14.24.26.06.12.09.29.09.49,0,1.79.3,1.9.77,2.32.1.06.19.13.33.18.19.08.42.11.68.11.32,0,.61-.07.87-.2.26-.14.47-.34.64-.61.16-.27.26-.6.28-1,0-.1.01-.24.02-.41s0-.36,0-.55,0-.38-.02-.56Z" />
</svg>